<svg width="32" height="32" viewBox="0 0 32 32" fill="none" xmlns="http://www.w3.org/2000/svg">
<g filter="url(#filter0_d_1621_444)">
<mask id="path-1-inside-1_1621_444" fill="white">
<path d="M16 0.375C22.375 0.375 27.625 5.625 27.625 12C27.625 18.4219 22.375 23.625 16 23.625C9.57812 23.625 4.375 18.4219 4.375 12C4.375 5.625 9.57812 0.375 16 0.375ZM24.1094 6C23.5 5.20312 22.7969 4.5 22 3.89062L19.0469 6.84375C19.8906 7.35938 20.6406 8.10938 21.1562 8.95312L24.1094 6ZM16 16.5C18.4844 16.5 20.5 14.5312 20.5 12C20.5 9.51562 18.4844 7.5 16 7.5C13.4688 7.5 11.5 9.51562 11.5 12C11.5 14.5312 13.4688 16.5 16 16.5ZM9.95312 3.89062C9.15625 4.5 8.45312 5.20312 7.84375 6L10.7969 8.95312C11.3125 8.10938 12.0625 7.35938 12.9062 6.84375L9.95312 3.89062ZM7.84375 18.0469C8.45312 18.8438 9.15625 19.5469 9.95312 20.1562L12.9062 17.2031C12.0625 16.6875 11.3125 15.9375 10.7969 15.0938L7.84375 18.0469ZM22 20.1562C22.7969 19.5469 23.5 18.8438 24.1094 18.0469L21.1562 15.0938C20.6406 15.9375 19.8906 16.6875 19.0469 17.2031L22 20.1562Z"/>
</mask>
<path d="M16 0.375C22.375 0.375 27.625 5.625 27.625 12C27.625 18.4219 22.375 23.625 16 23.625C9.57812 23.625 4.375 18.4219 4.375 12C4.375 5.625 9.57812 0.375 16 0.375ZM24.1094 6C23.5 5.20312 22.7969 4.5 22 3.89062L19.0469 6.84375C19.8906 7.35938 20.6406 8.10938 21.1562 8.95312L24.1094 6ZM16 16.5C18.4844 16.5 20.5 14.5312 20.5 12C20.5 9.51562 18.4844 7.5 16 7.5C13.4688 7.5 11.5 9.51562 11.5 12C11.5 14.5312 13.4688 16.5 16 16.5ZM9.95312 3.89062C9.15625 4.5 8.45312 5.20312 7.84375 6L10.7969 8.95312C11.3125 8.10938 12.0625 7.35938 12.9062 6.84375L9.95312 3.89062ZM7.84375 18.0469C8.45312 18.8438 9.15625 19.5469 9.95312 20.1562L12.9062 17.2031C12.0625 16.6875 11.3125 15.9375 10.7969 15.0938L7.84375 18.0469ZM22 20.1562C22.7969 19.5469 23.5 18.8438 24.1094 18.0469L21.1562 15.0938C20.6406 15.9375 19.8906 16.6875 19.0469 17.2031L22 20.1562Z" fill="#024E82"/>
<path d="M24.1094 6L24.8165 6.70711L25.4356 6.08802L24.9037 5.39255L24.1094 6ZM22 3.89062L22.6075 3.09627L21.912 2.56443L21.2929 3.18352L22 3.89062ZM19.0469 6.84375L18.3398 6.13664L17.4417 7.03474L18.5254 7.69703L19.0469 6.84375ZM21.1562 8.95312L20.303 9.47458L20.9653 10.5583L21.8634 9.66023L21.1562 8.95312ZM9.95312 3.89062L10.6602 3.18352L10.0411 2.56443L9.34567 3.09627L9.95312 3.89062ZM7.84375 6L7.04939 5.39255L6.51756 6.08802L7.13664 6.70711L7.84375 6ZM10.7969 8.95312L10.0898 9.66023L10.9879 10.5583L11.6502 9.47458L10.7969 8.95312ZM12.9062 6.84375L13.4277 7.69703L14.5115 7.03474L13.6134 6.13664L12.9062 6.84375ZM7.84375 18.0469L7.13664 17.3398L6.51756 17.9589L7.04939 18.6543L7.84375 18.0469ZM9.95312 20.1562L9.34567 20.9506L10.0411 21.4824L10.6602 20.8634L9.95312 20.1562ZM12.9062 17.2031L13.6134 17.9102L14.5115 17.0121L13.4277 16.3498L12.9062 17.2031ZM10.7969 15.0938L11.6502 14.5723L10.9879 13.4885L10.0898 14.3866L10.7969 15.0938ZM22 20.1562L21.2929 20.8634L21.912 21.4824L22.6075 20.9506L22 20.1562ZM24.1094 18.0469L24.9037 18.6543L25.4356 17.9589L24.8165 17.3398L24.1094 18.0469ZM21.1562 15.0938L21.8634 14.3866L20.9653 13.4885L20.303 14.5723L21.1562 15.0938ZM19.0469 17.2031L18.5254 16.3498L17.4417 17.0121L18.3398 17.9102L19.0469 17.2031ZM16 1.375C21.8227 1.375 26.625 6.17728 26.625 12H28.625C28.625 5.07272 22.9273 -0.625 16 -0.625V1.375ZM26.625 12C26.625 17.867 21.8253 22.625 16 22.625V24.625C22.9247 24.625 28.625 18.9768 28.625 12H26.625ZM16 22.625C10.1304 22.625 5.375 17.8696 5.375 12H3.375C3.375 18.9742 9.02584 24.625 16 24.625V22.625ZM5.375 12C5.375 6.17466 10.133 1.375 16 1.375V-0.625C9.02322 -0.625 3.375 5.07534 3.375 12H5.375ZM24.9037 5.39255C24.2406 4.52538 23.4746 3.7594 22.6075 3.09627L21.3925 4.68498C22.1191 5.2406 22.7594 5.88087 23.315 6.60745L24.9037 5.39255ZM21.2929 3.18352L18.3398 6.13664L19.754 7.55086L22.7071 4.59773L21.2929 3.18352ZM18.5254 7.69703C19.2338 8.12993 19.8701 8.76619 20.303 9.47458L22.0095 8.43167C21.4112 7.45256 20.5474 6.58882 19.5683 5.99047L18.5254 7.69703ZM21.8634 9.66023L24.8165 6.70711L23.4023 5.29289L20.4491 8.24602L21.8634 9.66023ZM16 17.5C19.0298 17.5 21.5 15.0903 21.5 12H19.5C19.5 13.9722 17.9389 15.5 16 15.5V17.5ZM21.5 12C21.5 8.96334 19.0367 6.5 16 6.5V8.5C17.9321 8.5 19.5 10.0679 19.5 12H21.5ZM16 6.5C12.9097 6.5 10.5 8.97016 10.5 12H12.5C12.5 10.0611 14.0278 8.5 16 8.5V6.5ZM10.5 12C10.5 15.0835 12.9165 17.5 16 17.5V15.5C14.021 15.5 12.5 13.979 12.5 12H10.5ZM9.34567 3.09627C8.4785 3.7594 7.71252 4.52538 7.04939 5.39255L8.63811 6.60745C9.19373 5.88087 9.834 5.2406 10.5606 4.68498L9.34567 3.09627ZM7.13664 6.70711L10.0898 9.66023L11.504 8.24602L8.55086 5.29289L7.13664 6.70711ZM11.6502 9.47458C12.0831 8.76619 12.7193 8.12993 13.4277 7.69703L12.3848 5.99047C11.4057 6.58882 10.5419 7.45256 9.94359 8.43167L11.6502 9.47458ZM13.6134 6.13664L10.6602 3.18352L9.24602 4.59773L12.1991 7.55086L13.6134 6.13664ZM7.04939 18.6543C7.71252 19.5215 8.4785 20.2875 9.34567 20.9506L10.5606 19.3619C9.834 18.8063 9.19373 18.166 8.63811 17.4394L7.04939 18.6543ZM10.6602 20.8634L13.6134 17.9102L12.1991 16.496L9.24602 19.4491L10.6602 20.8634ZM13.4277 16.3498C12.7193 15.9169 12.0831 15.2807 11.6502 14.5723L9.94359 15.6152C10.5419 16.5943 11.4057 17.4581 12.3848 18.0564L13.4277 16.3498ZM10.0898 14.3866L7.13664 17.3398L8.55086 18.754L11.504 15.8009L10.0898 14.3866ZM22.6075 20.9506C23.4746 20.2875 24.2406 19.5215 24.9037 18.6543L23.315 17.4394C22.7594 18.166 22.1191 18.8063 21.3925 19.3619L22.6075 20.9506ZM24.8165 17.3398L21.8634 14.3866L20.4491 15.8009L23.4023 18.754L24.8165 17.3398ZM20.303 14.5723C19.8701 15.2807 19.2338 15.9169 18.5254 16.3498L19.5683 18.0564C20.5474 17.4581 21.4112 16.5943 22.0095 15.6152L20.303 14.5723ZM18.3398 17.9102L21.2929 20.8634L22.7071 19.4491L19.754 16.496L18.3398 17.9102Z" fill="black" mask="url(#path-1-inside-1_1621_444)"/>
</g>
<defs>
<filter id="filter0_d_1621_444" x="0.375" y="0.375" width="31.25" height="31.25" filterUnits="userSpaceOnUse" color-interpolation-filters="sRGB">
<feFlood flood-opacity="0" result="BackgroundImageFix"/>
<feColorMatrix in="SourceAlpha" type="matrix" values="0 0 0 0 0 0 0 0 0 0 0 0 0 0 0 0 0 0 127 0" result="hardAlpha"/>
<feOffset dy="4"/>
<feGaussianBlur stdDeviation="2"/>
<feComposite in2="hardAlpha" operator="out"/>
<feColorMatrix type="matrix" values="0 0 0 0 0 0 0 0 0 0 0 0 0 0 0 0 0 0 0.25 0"/>
<feBlend mode="normal" in2="BackgroundImageFix" result="effect1_dropShadow_1621_444"/>
<feBlend mode="normal" in="SourceGraphic" in2="effect1_dropShadow_1621_444" result="shape"/>
</filter>
</defs>
</svg>
